#!OML:ASF F:\VICON\USERDATA\INSTALL\rory3\rory3.ASF
:FULLY-SPECIFIED
:DEGREES
277
root -0.846411 16.6487 -20.2653 -333.663 57.9731 10.2286
lowerback -7.55448 -1.956 -7.82893
upperback -11.3594 -2.27726 -9.35806
thorax -8.02471 -0.704981 -5.7563
lowerneck -11.154 -11.0474 -10.4784
upperneck 37.2831 -18.5196 12.9179
head 18.3043 -7.33321 4.18406
rclavicle 2.74323e-014 1.24042e-013
rhumerus 348.151 27.2966 -429.99
rradius 53.6702
rwrist -46.5396
rhand -5.67345 13.286
rfingers 7.12502
rthumb 20.1462 -15.6894
lclavicle 2.74323e-014 1.24042e-013
lhumerus 19.4555 -59.0845 59.622
lradius 31.2703
lwrist -15.7991
lhand 1.27419 23.4492
lfingers 7.12502
lthumb 26.8102 51.5688
rfemur -30.0849 9.48742 392.282
rtibia 45.4913
rfoot 182.81 167.888
rtoes 42.4967
lfemur -70.1592 38.0167 -18.7011
ltibia 120.56
lfoot -137.145 -149.573
ltoes 24.8335
278
root -0.83803 16.6378 -20.2839 -333.996 53.2433 8.855
lowerback -8.05136 -1.69443 -6.93677
upperback -12.1336 -1.99422 -9.31831
thorax -8.63381 -0.643124 -6.25522
lowerneck -11.4931 -10.8098 -9.96762
upperneck 37.6287 -18.3049 12.6959
head 18.4425 -7.19363 4.04044
rclavicle 5.08889e-014 -3.81667e-014
rhumerus 347.227 28.1379 -432.675
rradius 56.5925
rwrist -47.8922
rhand -5.81843 12.4725
rfingers 7.12502
rthumb 20.0069 -16.5175
lclavicle 5.08889e-014 -3.81667e-014
lhumerus 17.1255 -60.4227 61.9028
lradius 32.3483
lwrist -13.9106
lhand 1.73878 22.2827
lfingers 7.12502
lthumb 27.2547 50.3333
rfemur -31.0075 10.4422 391.39
rtibia 45.9812
rfoot 184.271 170.613
rtoes 38.7466
lfemur -70.638 35.1706 -20.3642
ltibia 118.687
lfoot -137.065 -156.337
ltoes 9.02979
279
root -0.843867 16.6382 -20.1884 -336.778 48.9376 7.89243
lowerback -6.99074 -1.76018 -8.73506
upperback -11.604 -2.18875 -8.08452
thorax -8.52722 -0.565597 -3.84436
lowerneck -12.4257 -10.5259 -10.0967
upperneck 37.9712 -17.6436 12.0855
head 18.671 -6.98747 3.88658
rclavicle 6.63941e-014 6.99722e-014
rhumerus 347.245 30.0116 -433.846
rradius 59.7221
rwrist -48.7648
rhand -5.86694 11.4989
rfingers 7.12502
rthumb 19.9603 -17.496
lclavicle 6.63941e-014 6.99722e-014
lhumerus 14.1939 -60.1407 66.0622
lradius 33.4255
lwrist -12.2343
lhand 1.57572 21.8168
lfingers 7.12502
lthumb 27.0988 49.8919
rfemur -27.9166 13.3497 391.362
rtibia 46.1455
rfoot 183.969 170.663
rtoes 39.2025
lfemur -64.6136 33.4363 -17.6669
ltibia 116.083
lfoot -147.125 -150.607
ltoes 20.8683
280
root -0.800499 16.6401 -20.2838 -336.216 44.0922 5.92369
lowerback -8.39964 -1.23885 -6.9184
upperback -12.512 -1.43652 -7.54127
thorax -8.73532 -0.321607 -4.29401
lowerneck -12.9832 -10.3694 -9.76575
upperneck 38.1431 -17.3871 11.6907
head 18.7569 -6.87126 3.67662
rclavicle -5.725e-014 -2.38542e-014
rhumerus 346.658 30.7096 -435.163
rradius 62.8189
rwrist -48.7236
rhand -5.28797 10.9751
rfingers 7.12502
rthumb 20.5167 -17.9608
lclavicle -5.725e-014 -2.38542e-014
lhumerus 11.9957 -61.04 69.57
lradius 34.6319
lwrist -11.522
lhand 3.02444 21.4214
lfingers 7.12502
lthumb 28.4839 49.2727
rfemur -30.6334 13.0653 390.359
rtibia 46.5856
rfoot 185.81 175.243
rtoes 38.8268
lfemur -67.4692 30.3169 -20.201
ltibia 114.53
lfoot -152.154 -150.802
ltoes 13.9341
281
root -0.741146 16.6377 -20.2573 -337.017 40.2591 4.83692
lowerback -8.94704 -1.02229 -6.51861
upperback -12.4169 -1.11186 -6.96398
thorax -8.27826 -0.191553 -3.8672
lowerneck -13.5891 -10.1133 -8.99557
upperneck 38.1627 -17.0951 11.3349
head 18.7072 -6.67384 3.41137
rclavicle -1.08934e-013 3.81667e-014
rhumerus 345.897 30.8477 -436.681
rradius 65.8889
rwrist -48.9515
rhand -4.42366 11.1762
rfingers 7.12502
rthumb 21.3471 -17.6679
lclavicle -1.08934e-013 3.81667e-014
lhumerus 10.7993 -62.4128 72.5721
lradius 35.4431
lwrist -10.6038
lhand 4.15731 22.2742
lfingers 7.12502
lthumb 29.5659 49.9392
rfemur -30.1883 11.9179 390.159
rtibia 46.7774
rfoot 186.326 178.931
rtoes 38.5336
lfemur -65.9131 26.6977 -20.0373
ltibia 112.317
lfoot -157.301 -151.168
ltoes 10.1293
282
root -0.690192 16.6206 -20.2585 -337.527 36.1041 3.39982
lowerback -9.45857 -0.674022 -5.68118
upperback -12.5184 -0.649286 -6.28327
thorax -8.06612 -0.018361 -3.5792
lowerneck -14.0919 -9.80585 -8.38737
upperneck 38.1397 -16.7351 11.1197
head 18.6455 -6.46245 3.26067
rclavicle 2.8625e-014 6.36111e-015
rhumerus 345.025 30.9217 -438.235
rradius 68.8779
rwrist -49.5878
rhand -2.86181 11.8794
rfingers 7.12502
rthumb 22.8466 -16.7874
lclavicle 2.8625e-014 6.36111e-015
lhumerus 8.25335 -63.2985 76.3026
lradius 37.0469
lwrist -9.40642
lhand 5.1354 22.1124
lfingers 7.12502
lthumb 30.4991 49.6082
rfemur -30.6567 11.3149 390.02
rtibia 47.2635
rfoot 186.734 181.954
rtoes 40.4417
lfemur -65.5586 23.4727 -19.8147
ltibia 110.317
lfoot -161.818 -152.03
ltoes 3.75196
283
root -0.641342 16.614 -20.2907 -337.838 31.8718 2.17721
lowerback -8.85697 -0.777628 -4.54928
upperback -12.7131 -0.909009 -5.21991
thorax -8.60138 -0.211362 -3.06911
lowerneck -15.844 -9.12728 -7.91899
upperneck 38.7129 -15.5648 10.3411
head 19.0855 -5.95236 3.02457
rclavicle -7.27552e-014 -7.95139e-015
rhumerus 345.109 32.7699 -439.707
rradius 71.943
rwrist -50.5144
rhand -1.59572 11.9182
rfingers 7.12502
rthumb 24.0611 -16.5934
lclavicle -7.27552e-014 -7.95139e-015
lhumerus 5.20926 -62.269 80.2251
lradius 38.1379
lwrist -7.59424
lhand 5.43232 20.3029
lfingers 7.12502
lthumb 30.7822 47.7456
rfemur -31.2333 12.0317 389.636
rtibia 47.7189
rfoot 188.107 184.618
rtoes 38.4475
lfemur -65.4204 19.9268 -19.4328
ltibia 108.08
lfoot -163.849 -153.185
ltoes 0.385544
284
root -0.568651 16.5804 -20.2763 -338.1 27.7292 0.887941
lowerback -8.9702 -0.297146 -3.54241
upperback -12.924 -0.313037 -4.74579
thorax -8.74842 0.00813567 -3.11447
lowerneck -15.87 -8.90296 -6.90549
upperneck 38.6902 -15.4449 9.96275
head 18.8728 -5.81984 2.69065
rclavicle -2.70347e-014 3.33958e-014
rhumerus 343.735 32.6388 -441.511
rradius 75.1779
rwrist -51.5181
rhand -1.79836 11.7663
rfingers 7.12502
rthumb 23.8668 -16.7708
lclavicle -2.70347e-014 3.33958e-014
lhumerus 2.61419 -63.2128 84.4277
lradius 38.8908
lwrist -5.70227
lhand 5.32204 18.2926
lfingers 7.12502
lthumb 30.6771 45.7551
rfemur -31.6488 11.655 389.639
rtibia 48.1807
rfoot 188.794 187.44
rtoes 37.9901
lfemur -64.7894 16.3081 -18.2342
ltibia 105.716
lfoot -170.766 -156.06
ltoes 4.45831
285
root -0.493601 16.5471 -20.2511 -338.421 23.5165 -0.283009
lowerback -8.90773 -0.0808607 -2.82741
upperback -12.9127 -0.0453919 -3.86869
thorax -8.74278 0.107388 -2.56269
lowerneck -16.272 -8.32924 -6.1868
upperneck 38.5489 -14.5987 9.49523
head 18.6151 -5.44645 2.51188
rclavicle 3.04141e-014 4.45278e-014
rhumerus 343.129 32.8867 -442.887
rradius 78.0385
rwrist -53.1962
rhand -2.13919 11.5206
rfingers 7.12502
rthumb 23.5399 -17.0588
lclavicle 3.04141e-014 4.45278e-014
lhumerus -0.140485 -62.5139 88.7378
lradius 39.4668
lwrist -4.66462
lhand 8.42155 17.7572
lfingers 7.12502
lthumb 33.6277 44.6228
rfemur -31.867 11.1512 389.572
rtibia 48.7063
rfoot 188.863 188.774
rtoes 37.8373
lfemur -64.342 12.7866 -16.7904
ltibia 103.122
lfoot -171.839 -158.62
ltoes -3.65694
286
root -0.425963 16.5658 -20.1921 -338.883 19.5398 -1.08213
lowerback -8.45845 0.346465 -2.58816
upperback -12.8892 0.488986 -3.42288
thorax -8.95304 0.36334 -2.21581
lowerneck -15.7829 -7.9887 -5.14854
upperneck 38.1546 -14.3062 9.25563
head 18.0644 -5.25953 2.28829
rclavicle 3.22031e-014 4.29375e-014
rhumerus 341.88 31.244 -444.419
rradius 80.4618
rwrist -55.0139
rhand -1.78133 11.5131
rfingers 7.12502
rthumb 23.8831 -17.0219
lclavicle 3.22031e-014 4.29375e-014
lhumerus -3.32653 -64.3958 93.5155
lradius 40.2357
lwrist -0.691705
lhand 11.3171 17.3255
lfingers 7.12502
lthumb 36.3744 43.5492
rfemur -31.2704 12.676 389.1
rtibia 48.9976
rfoot 189.989 187.868
rtoes 42.2015
lfemur -63.4759 9.00882 -15.2327
ltibia 99.8996
lfoot -171.776 -162.814
ltoes -18.7137
287
root -0.348656 16.5519 -20.1464 -338.872 15.7991 -1.93505
lowerback -8.23148 0.225476 -2.09023
upperback -12.8204 0.328693 -2.42231
thorax -8.99762 0.277588 -1.42281
lowerneck -16.1774 -7.17139 -4.63621
upperneck 38.1591 -13.0462 8.80179
head 17.9044 -4.74201 2.24361
rclavicle -4.27387e-014 7.95139e-015
rhumerus 341.354 32.5432 -445.977
rradius 82.7211
rwrist -53.7899
rhand -0.617753 12.2835
rfingers 7.12502
rthumb 24.9985 -16.101
lclavicle -4.27387e-014 7.95139e-015
lhumerus -5.68253 -64.3143 97.3365
lradius 40.7815
lwrist 3.48142
lhand 13.9087 14.0554
lfingers 7.12502
lthumb 38.8234 39.6258
rfemur -31.2425 12.7807 388.906
rtibia 49.219
rfoot 190.792 187.841
rtoes 41.7882
lfemur -63.2031 4.94514 -13.224
ltibia 96.7806
lfoot -175.417 -165.212
ltoes -19.9804
288
root -0.251553 16.5278 -20.0737 -339.054 11.6887 -2.95789
lowerback -8.08845 0.42795 -1.38584
upperback -12.5446 0.597709 -1.63778
thorax -8.75383 0.37562 -0.971551
lowerneck -16.6198 -6.47959 -3.81302
upperneck 38.1127 -12.0707 8.29255
head 17.7487 -4.29921 2.05283
rclavicle -2.40529e-014 3.49861e-014
rhumerus 341.34 32.8244 -447.005
rradius 84.8026
rwrist -54.9389
rhand 1.68161 12.7628
rfingers 7.12502
rthumb 27.2001 -15.2965
lclavicle -2.40529e-014 3.49861e-014
lhumerus -7.54129 -64.9334 100.613
lradius 41.4142
lwrist 7.87905
lhand 15.4636 11.8992
lfingers 7.12502
lthumb 40.2879 37.0378
rfemur -30.7637 12.1593 389.001
rtibia 49.158
rfoot 191.62 188.631
rtoes 37.9659
lfemur -62.8973 1.41722 -11.0968
ltibia 93.6495
lfoot -176.62 -166.304
ltoes -25.6662
289
root -0.167816 16.5443 -19.9972 -339.088 7.77862 -3.71912
lowerback -7.59461 0.61438 -0.969999
upperback -12.2313 0.83938 -1.03526
thorax -8.6778 0.478051 -0.56228
lowerneck -17.1925 -5.8373 -2.89321
upperneck 37.8938 -11.2691 7.95478
head 17.5822 -3.88897 1.87815
rclavicle -1.02374e-014 7.15625e-015
rhumerus 341.571 32.8013 -447.855
rradius 86.7844
rwrist -55.9032
rhand 1.71796 12.8612
rfingers 7.12502
rthumb 27.2348 -15.1926
lclavicle -1.02374e-014 7.15625e-015
lhumerus -9.02607 -65.8185 103.471
lradius 42.1075
lwrist 12.0956
lhand 16.9905 10.359
lfingers 7.12502
lthumb 41.7219 35.0416
rfemur -30.2071 12.3376 388.843
rtibia 48.9669
rfoot 191.933 187.823
rtoes 41.4276
lfemur -62.9016 -2.08106 -8.95112
ltibia 90.1708
lfoot -178.404 -166.475
ltoes -32.0995
290
root -0.0769815 16.5711 -19.8892 -339.053 3.00375 -4.82618
lowerback -6.91449 0.868309 -0.0171016
upperback -12.0948 1.16756 -0.412253
thorax -8.90492 0.576399 -0.440994
lowerneck -17.7711 -4.82424 -2.08615
upperneck 37.9172 -9.93062 7.69192
head 17.542 -3.26265 1.87629
rclavicle -1.88845e-014 0
rhumerus 341.713 33.4385 -449.234
rradius 88.3206
rwrist -57.0322
rhand 2.33289 13.1105
rfingers 7.12502
rthumb 27.8229 -14.8496
lclavicle -1.88845e-014 0
lhumerus -10.9643 -64.779 106.303
lradius 42.4263
lwrist 15.1984
lhand 19.2032 9.31756
lfingers 7.12502
lthumb 43.7921 33.2775
rfemur -29.3299 13.3177 388.718
rtibia 48.5746
rfoot 192.273 186.747
rtoes 43.7341
lfemur -62.1847 -4.78154 -6.4193
ltibia 86.3938
lfoot -180.377 -166.184
ltoes -31.0657
